<svg xmlns="http://www.w3.org/2000/svg" width="24" height="24" viewBox="0 0 24 24" fill="none">
  <!-- Scale / Balance icon matching Joan's brand -->
  <path d="M12 2L3 7v2h2v9a2 2 0 002 2h10a2 2 0 002-2V9h2V7L12 2z" fill="#3d5a80" opacity="0.15"/>
  <circle cx="8" cy="7" r="3" stroke="#3d5a80" stroke-width="1.5" fill="none"/>
  <circle cx="16" cy="7" r="3" stroke="#3d5a80" stroke-width="1.5" fill="none"/>
  <line x1="8" y1="10" x2="12" y2="4" stroke="#3d5a80" stroke-width="1.5"/>
  <line x1="16" y1="10" x2="12" y2="4" stroke="#3d5a80" stroke-width="1.5"/>
  <line x1="4" y1="7" x2="20" y2="7" stroke="#3d5a80" stroke-width="1.5" stroke-linecap="round"/>
  <line x1="12" y1="3" x2="12" y2="21" stroke="#3d5a80" stroke-width="1.5" stroke-linecap="round"/>
  <circle cx="12" cy="3" r="1.5" fill="#c9a04d"/>
  <path d="M7 21h10v1a1 1 0 01-1 1H8a1 1 0 01-1-1v-1z" fill="#3d5a80" opacity="0.3"/>
</svg>
